<svg width="27" height="27" viewBox="0 0 27 27" fill="none" xmlns="http://www.w3.org/2000/svg">
<path fill-rule="evenodd" clip-rule="evenodd" d="M13.5 0C6.04416 0 0 6.04416 0 13.5C0 20.9558 6.04416 27 13.5 27C20.9558 27 27 20.9558 27 13.5C27 6.04416 20.9558 0 13.5 0ZM14.5992 17.762C14.4661 17.9023 14.2062 17.9307 14.2062 17.9307H13.3456C13.3456 17.9307 11.4468 18.0427 9.77403 16.3337C7.94988 14.4691 6.33913 10.7698 6.33913 10.7698C6.33913 10.7698 6.24617 10.5271 6.34688 10.4103C6.46027 10.2782 6.76946 10.2699 6.76946 10.2699L8.82674 10.2568C8.82674 10.2568 9.02042 10.2879 9.15917 10.3881C9.27397 10.4711 9.33806 10.6253 9.33806 10.6253C9.33806 10.6253 9.6705 11.4507 10.1107 12.1974C10.9706 13.6554 11.3707 13.9741 11.6623 13.8179C12.0877 13.5904 11.9602 11.757 11.9602 11.757C11.9602 11.757 11.9679 11.0919 11.7461 10.7953C11.5742 10.5658 11.2503 10.4987 11.1073 10.4801C10.9911 10.4649 11.1812 10.2008 11.4277 10.0826C11.7982 9.90489 12.4518 9.89452 13.2244 9.90212C13.8266 9.90834 13.9999 9.94498 14.2351 10.001C14.781 10.1303 14.764 10.5448 14.7272 11.4392C14.7162 11.7067 14.7035 12.0172 14.7035 12.3757C14.7035 12.4563 14.7011 12.5422 14.6986 12.6306C14.6858 13.0888 14.6712 13.6136 14.9788 13.8089C15.1366 13.9085 15.5219 13.8234 16.486 12.2167C16.9431 11.4549 17.2854 10.5596 17.2854 10.5596C17.2854 10.5596 17.3608 10.3999 17.477 10.3314C17.596 10.2616 17.7566 10.2831 17.7566 10.2831L19.9216 10.2699C19.9216 10.2699 20.5724 10.1932 20.6774 10.4822C20.7879 10.7843 20.4344 11.4908 19.5498 12.6481C18.7107 13.7462 18.3023 14.1505 18.3398 14.5081C18.3672 14.7694 18.6326 15.0057 19.142 15.4695C20.2053 16.4386 20.4904 16.9484 20.5588 17.0709C20.5645 17.0811 20.5687 17.0886 20.5717 17.0935C21.0485 17.8698 20.0428 17.9307 20.0428 17.9307L18.1193 17.957C18.1193 17.957 17.7066 18.0372 17.1629 17.6707C16.8781 17.479 16.5997 17.1658 16.3347 16.8674C15.9298 16.4118 15.5558 15.9909 15.2366 16.0903C14.7006 16.2576 14.7168 17.3907 14.7168 17.3907C14.7168 17.3907 14.7211 17.6334 14.5992 17.762Z" fill="#EC1D22"/>
</svg>
