<svg width="26" height="27" viewBox="0 0 26 27" fill="none" xmlns="http://www.w3.org/2000/svg">
<path fill-rule="evenodd" clip-rule="evenodd" d="M13 0C5.8203 0 0 6.04416 0 13.5C0 20.9558 5.8203 27 13 27C20.1797 27 26 20.9558 26 13.5C26 6.04416 20.1797 0 13 0ZM10.1417 6.34331C10.8812 6.30835 11.1176 6.2998 13.0006 6.2998H12.9984C14.882 6.2998 15.1174 6.30835 15.857 6.34331C16.5951 6.37841 17.0992 6.49976 17.5412 6.67781C17.9977 6.86156 18.3833 7.10756 18.769 7.50807C19.1547 7.90827 19.3916 8.30997 19.5692 8.78353C19.7397 9.24133 19.8567 9.76454 19.8913 10.531C19.9246 11.2991 19.9332 11.5445 19.9332 13.4999C19.9332 15.4553 19.9246 15.7001 19.8913 16.4681C19.8567 17.2343 19.7397 17.7577 19.5692 18.2156C19.3916 18.689 19.1547 19.0907 18.769 19.4909C18.3838 19.8914 17.9975 20.138 17.5416 20.3219C17.1005 20.5 16.5961 20.6214 15.858 20.6565C15.1184 20.6914 14.8828 20.7 12.9997 20.7C11.1168 20.7 10.8807 20.6914 10.1411 20.6565C9.40313 20.6214 8.89916 20.5 8.45802 20.3219C8.00229 20.138 7.61547 19.8914 7.23023 19.4909C6.8447 19.0907 6.60781 18.689 6.43058 18.2155C6.25926 17.7577 6.14241 17.2345 6.10846 16.468C6.07495 15.7 6.06657 15.4553 6.06657 13.4999C6.06657 11.5445 6.07524 11.2989 6.10832 10.5309C6.14154 9.76469 6.25854 9.24133 6.43043 8.78338C6.6081 8.30998 6.84499 7.90827 7.23066 7.50807C7.61605 7.10771 8.00287 6.86171 8.45889 6.67781C8.89974 6.49976 9.40356 6.37841 10.1417 6.34331Z" fill="#EC1D22"/>
<path fill-rule="evenodd" clip-rule="evenodd" d="M12.3784 7.5975C12.4991 7.59731 12.6291 7.59737 12.7693 7.59743L13.0004 7.5975C14.8516 7.5975 15.071 7.6044 15.802 7.6389C16.478 7.671 16.8449 7.78831 17.0893 7.88686C17.4129 8.01736 17.6436 8.17336 17.8861 8.42536C18.1288 8.67736 18.279 8.91737 18.4049 9.25337C18.4998 9.50687 18.6129 9.88788 18.6437 10.5899C18.6769 11.3489 18.6842 11.5769 18.6842 13.4984C18.6842 15.4199 18.6769 15.6479 18.6437 16.4069C18.6128 17.109 18.4998 17.49 18.4049 17.7435C18.2793 18.0795 18.1288 18.3187 17.8861 18.5706C17.6434 18.8226 17.413 18.9786 17.0893 19.1091C16.8452 19.2081 16.478 19.3251 15.802 19.3572C15.0711 19.3917 14.8516 19.3992 13.0004 19.3992C11.149 19.3992 10.9296 19.3917 10.1987 19.3572C9.52267 19.3248 9.15578 19.2075 8.91123 19.1089C8.58767 18.9784 8.35656 18.8224 8.11389 18.5704C7.87122 18.3184 7.721 18.079 7.59504 17.7429C7.50014 17.4894 7.38704 17.1084 7.35627 16.4063C7.32305 15.6473 7.31641 15.4193 7.31641 13.4966C7.31641 11.5739 7.32305 11.3471 7.35627 10.5881C7.38718 9.88608 7.50014 9.50507 7.59504 9.25127C7.72071 8.91527 7.87122 8.67526 8.11389 8.42326C8.35656 8.17126 8.58767 8.01526 8.91123 7.88446C9.15564 7.78546 9.52267 7.66845 10.1987 7.6362C10.8383 7.6062 11.0862 7.5972 12.3784 7.5957V7.5975ZM16.7013 8.79327C16.242 8.79327 15.8693 9.17982 15.8693 9.65698C15.8693 10.134 16.242 10.521 16.7013 10.521C17.1607 10.521 17.5333 10.134 17.5333 9.65698C17.5333 9.17997 17.1607 8.79297 16.7013 8.79297V8.79327ZM9.43982 13.5003C9.43982 11.4584 11.034 9.80281 13.0003 9.80273C14.9666 9.80273 16.5604 11.4583 16.5604 13.5003C16.5604 15.5422 14.9668 17.1971 13.0004 17.1971C11.0341 17.1971 9.43982 15.5422 9.43982 13.5003Z" fill="#EC1D22"/>
<path d="M13.0006 11.0996C14.2769 11.0996 15.3117 12.1741 15.3117 13.4996C15.3117 14.825 14.2769 15.8997 13.0006 15.8997C11.7241 15.8997 10.6895 14.825 10.6895 13.4996C10.6895 12.1741 11.7241 11.0996 13.0006 11.0996Z" fill="#EC1D22"/>
</svg>
