<svg width="27" height="27" viewBox="0 0 27 27" fill="none" xmlns="http://www.w3.org/2000/svg">
<path fill-rule="evenodd" clip-rule="evenodd" d="M27 13.5C27 20.9558 20.9558 27 13.5 27C6.04416 27 0 20.9558 0 13.5C0 6.04416 6.04416 0 13.5 0C20.9558 0 27 6.04416 27 13.5ZM9.04004 12.2635C7.68764 12.854 6.29806 13.4607 5.02742 14.1606L5.02733 14.1607C4.36387 14.6464 5.24576 14.99 6.07302 15.3123C6.20453 15.3635 6.33466 15.4142 6.45698 15.4649C6.55878 15.4962 6.66231 15.5291 6.76722 15.5626C7.68728 15.8557 8.7132 16.1825 9.60642 15.6909C11.0738 14.8479 12.4585 13.8734 13.8422 12.8996C14.2955 12.5806 14.7487 12.2617 15.2046 11.9475C15.226 11.9339 15.2501 11.9182 15.2765 11.9011C15.665 11.6493 16.5385 11.0831 16.2154 11.8634C15.4512 12.699 14.6327 13.4388 13.8098 14.1826C13.2552 14.6838 12.6986 15.1869 12.1552 15.7223C11.682 16.1069 11.1906 16.8802 11.7205 17.4186C12.941 18.2731 14.1806 19.1068 15.4195 19.94C15.8227 20.2112 16.2258 20.4823 16.6282 20.7541C17.31 21.2985 18.3757 20.8582 18.5256 20.0075C18.5923 19.6161 18.6592 19.2248 18.7262 18.8334C19.096 16.6708 19.4661 14.5074 19.7929 12.3378C19.8373 11.9975 19.8877 11.6572 19.9381 11.3167C20.0602 10.4914 20.1825 9.66513 20.2207 8.83543C20.1222 8.00748 19.1183 8.18951 18.5596 8.3757C15.6879 9.46841 12.8449 10.6421 10.0132 11.8365C9.69246 11.9786 9.36734 12.1206 9.04004 12.2635Z" fill="#EC1D22"/>
</svg>
