<svg width="27" height="27" viewBox="0 0 27 27" fill="none" xmlns="http://www.w3.org/2000/svg">
<path fill-rule="evenodd" clip-rule="evenodd" d="M13.5 0C6.04416 0 0 6.04416 0 13.5C0 20.9558 6.04416 27 13.5 27C20.9558 27 27 20.9558 27 13.5C27 6.04416 20.9558 0 13.5 0ZM19.1258 8.8588C19.7454 9.02883 20.2334 9.5298 20.399 10.166C20.6999 11.319 20.6999 13.7248 20.6999 13.7248C20.6999 13.7248 20.6999 16.1305 20.399 17.2836C20.2334 17.9198 19.7454 18.4208 19.1258 18.5909C18.0029 18.8998 13.4999 18.8998 13.4999 18.8998C13.4999 18.8998 8.99688 18.8998 7.87393 18.5909C7.25432 18.4208 6.76636 17.9198 6.60076 17.2836C6.29991 16.1305 6.29991 13.7248 6.29991 13.7248C6.29991 13.7248 6.29991 11.319 6.60076 10.166C6.76636 9.5298 7.25432 9.02883 7.87393 8.8588C8.99688 8.5498 13.4999 8.5498 13.4999 8.5498C13.4999 8.5498 18.0029 8.5498 19.1258 8.8588Z" fill="#EC1D22"/>
<path d="M12.1504 16.2002V11.7002L15.7504 13.9503L12.1504 16.2002Z" fill="#EC1D22"/>
</svg>
