<svg width="16" height="11" viewBox="0 0 16 11" fill="none" xmlns="http://www.w3.org/2000/svg">
<path fill-rule="evenodd" clip-rule="evenodd" d="M8.00033 0C2.71407 0 0 5.5 0 5.5C0 5.5 2.04804 11 8.00033 11C13.3905 11 16 5.52131 16 5.52131C16 5.52131 13.3699 0 8.00033 0ZM8.01232 8.9375C6.07951 8.9375 4.68218 7.43325 4.68218 5.5C4.68218 3.56606 6.07951 2.0625 8.01232 2.0625C9.94514 2.0625 11.3425 3.56606 11.3425 5.5C11.3425 7.43325 9.94514 8.9375 8.01232 8.9375ZM8.01232 3.4375C6.90805 3.43956 6.01424 4.39519 6.01424 5.5C6.01424 6.60413 6.90805 7.5625 8.01232 7.5625C9.1166 7.5625 10.0104 6.60344 10.0104 5.5C10.0104 4.3945 9.1166 3.43544 8.01232 3.4375Z" fill="#BBBBBB"/>
</svg>
