<svg width="27" height="13" viewBox="0 0 27 13" fill="none" xmlns="http://www.w3.org/2000/svg">
<path fill-rule="evenodd" clip-rule="evenodd" d="M14.7522 5.69453C14.858 5.93059 14.9113 6.19218 14.9185 6.45373C14.942 7.32932 14.4543 8.22059 13.224 8.22059H12.0955V4.77941H13.224C13.5341 4.77941 13.7969 4.83762 14.0162 4.93867C14.3687 5.10113 14.6087 5.37435 14.7522 5.69453ZM23.7545 0C25.2933 0 26.5407 1.23817 26.5407 2.76556V10.2344C26.5407 11.7618 25.2933 13 23.7545 13H2.7862C1.24741 13 0 11.7618 0 10.2344V2.76556C0 1.23817 1.24741 0 2.7862 0H23.7545ZM6.93371 7.60882H8.47454C11.1325 7.60882 11.1325 3.78304 8.47454 3.78308C8.05081 3.78308 7.62709 3.78499 7.20336 3.7869C6.77963 3.78881 6.3559 3.79072 5.93218 3.79072V9.17647H6.93371V7.60882ZM11.0939 9.17647H13.224C15.12 9.17647 15.9555 7.81338 15.9324 6.45373C15.9089 5.12544 15.0811 3.82353 13.224 3.82353H11.0939V9.17647ZM17.758 4.77941H20.6471V3.82353H16.7565V9.17647H17.758V7.18824H20.493V6.27059H17.758V4.77941ZM6.9337 6.65415H8.47453C9.78423 6.65415 9.78423 4.78062 8.47453 4.78062H6.9337V6.65415Z" fill="#FF2F2F"/>
</svg>
