<svg width="200" height="43" viewBox="0 0 200 43" fill="none" xmlns="http://www.w3.org/2000/svg">
<g clip-path="url(#clip0_1931_2)">
<path d="M34.0743 18.2819C33.5183 17.7553 32.699 17.6968 32.1724 17.6968H29.3919V21.5595H32.2015C32.8551 21.613 33.5044 21.414 34.0159 21.0035C34.2074 20.8305 34.359 20.6178 34.4601 20.3803C34.5612 20.1428 34.6094 19.8862 34.6013 19.6282C34.6142 19.3792 34.5739 19.1303 34.483 18.8982C34.3921 18.666 34.2528 18.4559 34.0743 18.2819ZM13.53 17.6968H11.247V21.618H13.53C14.1812 21.6508 14.8233 21.454 15.3444 21.062C15.7107 20.697 15.9205 20.2037 15.9294 19.6866C15.94 19.1824 15.7628 18.6922 15.4322 18.3113C14.8468 17.7258 13.9981 17.6968 13.53 17.6968ZM64.2729 13.3559C64.3487 13.0184 64.5374 12.7168 64.8078 12.5009C65.0781 12.2851 65.414 12.1679 65.76 12.1687H69.0235C69.1825 11.6402 69.368 11.0626 69.5747 10.4585L4.45042 10.457C3.27126 10.4604 2.14133 10.9302 1.30746 11.7639C0.473592 12.5977 0.00354613 13.7275 0 14.9067L0 31.8166C0.00336051 32.9957 0.47323 34.1256 1.30697 34.9594C2.1407 35.7932 3.27054 36.2632 4.44966 36.2667L63.6133 36.2678C64.071 34.6392 64.6375 32.093 65.4467 28.0437C66.2888 23.8339 67.2269 19.6635 67.7922 17.2212H65.3049C65.0759 17.221 64.8498 17.1693 64.6435 17.0699C64.4372 16.9704 64.2559 16.8259 64.1131 16.6468C63.9702 16.4678 63.8695 16.259 63.8183 16.0358C63.7671 15.8125 63.7668 15.5806 63.8174 15.3573L64.2729 13.3559ZM21.1384 23.1103C19.3534 25.9198 16.2806 26.1246 14.1444 26.1246H11.247V33.3823H5.10213V13.3071H13.1788C15.0516 13.3071 17.2463 13.2777 19.0901 14.3313C20.3776 15.0631 22.0747 16.5848 22.0747 19.6282C22.0776 20.8515 21.7544 22.0534 21.1384 23.1103ZM34.3086 33.3823L31.3821 25.8907H29.3919V33.3823H23.247V13.3071H33.3723C34.6303 13.3071 37.4689 13.3947 39.2249 15.2091C40.2482 16.335 40.7938 17.8146 40.7465 19.3354C40.7465 21.5885 39.7518 23.8715 37.2935 24.7493L41.1562 33.3823L34.3086 33.3823ZM58.5991 30.9534C57.3113 32.3283 55.0872 33.675 51.6342 33.675C48.9714 33.675 46.8933 32.9726 45.1378 31.3042C43.0306 29.3143 42.0649 26.6512 42.0649 23.3445C42.0649 18.8669 43.879 16.3799 45.518 15.0336C46.9812 13.8341 48.9714 13.0144 51.6342 13.0144C55.3211 13.0144 57.3698 14.6534 58.1306 15.3263C59.8866 16.9065 61.2034 19.6281 61.2034 23.3445C61.2034 26.3883 60.2668 29.168 58.5991 30.9534ZM51.6342 17.4041C50.756 17.4041 49.8782 17.8428 49.2931 19.0427C49.1468 19.3354 48.6198 20.5059 48.6198 23.2276C48.6198 25.9782 49.1468 27.2076 49.2931 27.5003C49.8782 28.7583 50.756 29.168 51.6342 29.168C52.512 29.168 53.3898 28.7583 53.9752 27.5003C54.1216 27.2076 54.6485 25.9782 54.6485 23.2276C54.6485 20.5059 54.1216 19.3354 53.9752 19.0427C53.3898 17.8428 52.512 17.4041 51.6342 17.4041Z" fill="#D24A43"/>
<path d="M65.3054 15.6952L65.7604 13.6934H70.1732C70.7646 11.5099 71.9932 7.77943 73.722 4.91331C75.132 2.63857 77.3158 0 81.0914 0C84.2308 0 85.6866 1.86506 85.6866 3.36627C85.6866 4.45821 85.0494 5.50471 83.5482 5.50471C82.1378 5.50471 81.5465 4.41277 81.228 2.86612C81.0914 2.09261 81.0463 1.45579 80.0002 1.45579C77.4067 1.45579 75.9055 7.18802 74.7227 13.6934H78.9991L78.5895 15.6951H74.1767C72.8572 21.9279 70.2641 32.3001 68.3536 36.2127C66.1243 40.8076 62.9398 42.6727 60.4833 42.6727C58.5724 42.6727 56.9803 41.4899 56.9803 39.8065C56.9725 39.5517 57.0185 39.298 57.1153 39.0621C57.2121 38.8263 57.3575 38.6134 57.542 38.4374C57.7265 38.2615 57.9461 38.1264 58.1863 38.0409C58.4265 37.9555 58.6821 37.9216 58.9363 37.9415C60.3012 37.9415 60.665 38.8971 61.211 39.6702C61.6207 40.2617 61.9845 40.6259 62.6213 40.6259C62.8358 40.6187 63.0448 40.5563 63.2281 40.4447C63.4114 40.3331 63.5627 40.176 63.6675 39.9887C64.6231 38.7604 65.2599 36.7587 66.9432 28.3424C68.0806 22.656 69.3997 17.0146 69.7185 15.6951L65.3054 15.6952Z" fill="#201600"/>
<path d="M65.2491 15.6952L65.7042 13.6934H70.1166C70.708 11.5099 71.9366 7.77943 73.6653 4.91331C75.0757 2.63857 77.2592 0 81.0351 0C84.1746 0 85.63 1.86506 85.63 3.36627C85.63 4.45821 84.9932 5.50471 83.4916 5.50471C82.0816 5.50471 81.4902 4.41277 81.1714 2.86612C81.0351 2.09261 80.9897 1.45579 79.9436 1.45579C77.3504 1.45579 75.8488 7.18802 74.6661 13.6934H78.9425L78.5332 15.6951H74.1201C72.8009 21.9279 70.2074 32.3001 68.2969 36.2127C66.0677 40.8076 62.8835 42.6727 60.427 42.6727C58.5158 42.6727 56.9237 41.4899 56.9237 39.8065C56.9159 39.5517 56.9619 39.298 57.0587 39.0621C57.1555 38.8262 57.301 38.6133 57.4855 38.4373C57.6701 38.2614 57.8897 38.1263 58.1299 38.0408C58.3702 37.9554 58.6258 37.9216 58.88 37.9415C60.2445 37.9415 60.6088 38.8971 61.1548 39.6702C61.564 40.2617 61.9279 40.6259 62.5647 40.6259C62.7793 40.6188 62.9883 40.5564 63.1717 40.4448C63.355 40.3331 63.5064 40.176 63.6112 39.9887C64.5668 38.7604 65.2037 36.7587 66.887 28.3424C68.024 22.656 69.3434 17.0146 69.6619 15.6951L65.2491 15.6952Z" fill="#201600"/>
<path d="M97.8224 12.8296H99.0502L94.1831 28.7519C94.0409 29.209 93.9641 29.684 93.9552 30.1627C93.9552 30.8449 94.1831 31.0267 94.5015 31.0267C95.7294 31.0267 97.0488 28.7519 98.232 26.5681L99.0964 27.1595C97.1855 31.2996 94.1831 34.1657 91.6808 34.1657C90.6343 34.1657 89.4515 33.6198 89.4515 31.7998C89.4515 31.2542 89.5428 30.5715 90.2705 28.0242L89.8154 27.8879C87.677 31.6635 85.2205 34.0745 82.1272 34.0745C79.1702 34.0745 77.3506 32.0277 77.3506 28.9337C77.3506 24.703 80.626 20.0172 81.3537 19.0616C85.1751 13.8299 88.8598 12.8296 91.1349 12.8296C91.7713 12.8296 93.5459 12.9205 95.5931 14.4667L97.8224 12.8296ZM93.2275 16.1959C93.2275 13.8299 91.59 13.7391 91.0436 13.7391C88.6326 13.7391 87.0405 16.5143 85.8574 18.8345C83.856 22.7925 82.4453 27.2511 82.4453 29.2524C82.4453 30.7995 83.4917 31.3909 84.4019 31.3909C86.3124 31.3909 88.087 28.8882 89.7245 26.0679C91.9538 22.2465 93.2275 18.3793 93.2275 16.1959Z" fill="#201600"/>
<path d="M106.328 30.617C106.693 31.4363 107.057 32.8917 108.967 32.8917C110.514 32.8917 111.697 31.7543 111.697 29.9347C111.697 27.9333 110.15 26.1591 108.33 24.2479C106.784 22.6103 104.919 20.8362 104.919 18.1976C104.919 15.5586 106.829 12.8296 111.424 12.8296C115.655 12.8296 117.748 14.6947 117.748 16.4689C117.748 17.5608 117.02 18.6069 115.745 18.6069C115.44 18.626 115.133 18.5807 114.846 18.4738C114.559 18.3669 114.298 18.2008 114.079 17.9863C113.86 17.7718 113.689 17.5138 113.577 17.2289C113.464 16.944 113.413 16.6386 113.426 16.3325V16.0138C113.426 14.4667 112.334 13.8753 111.151 13.8753C109.877 13.8753 108.876 14.6492 108.876 16.1046C108.876 18.0155 110.514 19.3804 112.152 20.927L113.062 21.7914C115.063 23.7019 115.837 25.9767 115.837 27.66C115.837 30.9358 113.243 34.1199 107.83 34.1199C103.099 34.1199 100.778 31.9364 100.778 29.9347C100.778 28.6611 101.734 27.7512 103.099 27.7512C103.669 27.7572 104.227 27.9221 104.709 28.2274C105.191 28.5327 105.579 28.9663 105.828 29.4796L106.328 30.617Z" fill="#201600"/>
<path d="M126.983 5.86856C127.211 5.09503 127.62 3.68508 127.62 3.13908C127.62 2.13803 126.893 1.36489 125.482 1.36489H125.209L125.391 0.318382L133.17 0L126.392 21.7004L126.847 21.8367C127.971 19.7951 129.281 17.8611 130.759 16.059C131.851 14.7854 133.852 12.8294 136.446 12.8294C138.356 12.8294 139.948 13.9664 139.948 16.1499C139.948 18.1066 138.903 20.5176 138.448 21.7004L135.764 28.8426C135.651 29.1701 135.56 29.5045 135.491 29.8437V30.0258C135.536 30.2988 135.672 30.8902 136.265 30.8902C137.31 30.8902 139.403 27.3414 140.085 26.159L141.041 26.6591C140.196 28.2869 139.19 29.8262 138.038 31.254C137.037 32.4364 135.672 33.8017 133.671 33.8017C130.987 33.8017 130.987 31.527 130.987 30.9356C130.987 30.0712 131.442 28.7517 131.714 28.024L134.763 19.7445C135.581 17.4698 135.581 16.6504 135.581 16.4687C135.587 16.306 135.559 16.1438 135.499 15.9924C135.439 15.8409 135.349 15.7033 135.234 15.5881C135.119 15.473 134.981 15.3827 134.83 15.3229C134.678 15.2631 134.516 15.235 134.353 15.2405C132.716 15.2405 130.35 18.0153 128.485 21.2453C126.347 24.9307 124.254 29.98 123.071 33.483H118.749L126.983 5.86856Z" fill="#201600"/>
<path d="M149.093 28.8427C148.917 29.2466 148.809 29.6771 148.774 30.1164C148.789 30.3243 148.882 30.5191 149.033 30.6623C149.185 30.8056 149.384 30.8869 149.593 30.8902C149.866 30.8902 150.731 30.7994 153.414 26.159L154.37 26.6592C153.499 28.2964 152.478 29.8497 151.322 31.2995C150.503 32.3002 149.002 33.8018 146.818 33.8018C146.363 33.8018 144.316 33.7109 144.316 31.1628C144.316 30.6627 144.407 29.7074 145.044 28.0241L148.865 17.7878C149.014 17.4093 149.106 17.0107 149.138 16.6051C149.148 16.3885 149.072 16.1767 148.928 16.0151C148.783 15.8536 148.581 15.7552 148.365 15.7411C148.183 15.7411 147.182 15.8319 144.498 20.4722L143.543 19.9717C144.354 18.3242 145.362 16.7812 146.545 15.3768C147.501 14.2395 148.957 12.8295 150.912 12.8295C153.46 12.8295 153.597 14.7854 153.597 15.7411C153.597 16.3779 153.505 16.878 152.869 18.6526L149.093 28.8427ZM153.187 7.96127C152.646 7.97036 152.113 7.81802 151.659 7.52362C151.204 7.22923 150.847 6.80611 150.633 6.30815C150.419 5.81018 150.359 5.2599 150.459 4.72736C150.559 4.19483 150.815 3.70414 151.195 3.31779C151.575 2.93143 152.061 2.66687 152.592 2.55782C153.123 2.44876 153.674 2.50013 154.176 2.70538C154.677 2.91064 155.106 3.2605 155.408 3.71041C155.71 4.16032 155.871 4.68992 155.871 5.23179C155.87 5.94727 155.588 6.63357 155.086 7.14373C154.584 7.65389 153.903 7.94735 153.187 7.96127Z" fill="#201600"/>
<path d="M174.979 20.7449C174.964 23.7392 174.113 26.6699 172.523 29.207C170.202 32.9375 167.199 34.2566 164.562 34.2566C160.467 34.2566 157.919 30.9812 157.919 26.2954C157.928 23.2717 158.779 20.3101 160.376 17.7425C163.015 13.5573 166.381 12.8296 168.337 12.8296C172.432 12.8296 174.979 16.1046 174.979 20.7449ZM161.832 30.5715C161.832 32.3003 162.742 33.1196 163.833 33.1196C165.971 33.1196 167.337 29.9347 168.337 27.3874C170.202 22.5195 171.067 18.3339 171.067 16.378C171.067 14.4217 169.884 13.9666 169.11 13.9666C166.881 13.9666 165.517 16.9694 164.562 19.5167C163.06 23.4747 161.832 28.206 161.832 30.5715Z" fill="#201600"/>
<path d="M178.89 33.4831L183.349 18.0155C183.513 17.4206 183.62 16.8112 183.667 16.1959C183.69 16.003 183.636 15.8089 183.517 15.6556C183.397 15.5023 183.223 15.4022 183.03 15.3769C182.53 15.3769 181.119 16.1959 178.663 20.9729L177.616 20.5632C180.847 13.8753 183.622 12.8296 184.941 12.8296C186.578 12.8296 187.443 14.2396 187.443 15.8775C187.443 17.6062 186.625 20.336 185.987 22.5195L186.397 22.6562C187.535 20.4346 188.891 18.3315 190.445 16.378C191.265 15.3769 193.448 12.8296 195.814 12.8296C197.634 12.8296 198.862 14.3304 198.862 16.3325C198.862 17.1965 198.589 18.6527 197.315 21.9732L194.676 28.8428C194.548 29.2275 194.456 29.6237 194.403 30.026C194.399 30.2412 194.476 30.4501 194.62 30.6105C194.763 30.7709 194.962 30.8709 195.177 30.8903C196.223 30.8903 198.408 27.2511 199.044 26.1591L200 26.6593C199.175 28.2993 198.168 29.8407 196.997 31.2542C195.859 32.6191 194.403 33.8019 192.357 33.8019C190.082 33.8019 189.945 31.7998 189.945 31.0721C189.945 30.617 190.036 29.7984 190.673 28.0242L193.676 19.7446C193.904 19.1529 194.54 17.1511 194.54 16.3325C194.546 16.2253 194.529 16.1179 194.49 16.018C194.45 15.9181 194.389 15.828 194.311 15.7542C194.233 15.6804 194.14 15.6246 194.038 15.5908C193.936 15.5571 193.828 15.5461 193.721 15.5587C192.174 15.5587 189.854 18.8799 188.763 20.6541C186.578 24.2479 184.44 29.4796 183.213 33.4831L178.89 33.4831Z" fill="#201600"/>
</g>
<defs>
<clipPath id="clip0_1931_2">
<rect width="200" height="42.6727" fill="white"/>
</clipPath>
</defs>
</svg>
